<svg width="32" height="33" viewBox="0 0 32 33" fill="none" xmlns="http://www.w3.org/2000/svg">
<g id="Graph 1">
<mask id="mask0_30_2457" style="mask-type:luminance" maskUnits="userSpaceOnUse" x="0" y="0" width="32" height="33">
<rect id="Graph 1 (Background/Mask)" y="0.846161" width="32" height="32" fill="white"/>
</mask>
<g mask="url(#mask0_30_2457)">
<path id="Vector" d="M13.6704 8.69195L14.0416 14.2119L14.2259 16.9863C14.2279 17.2716 14.2725 17.5551 14.3588 17.8275C14.5813 18.3563 15.1168 18.6923 15.6993 18.6688L24.5756 18.0882C24.96 18.0819 25.3312 18.2256 25.6075 18.4879C25.8377 18.7064 25.9864 18.9923 26.0333 19.2998L26.0491 19.4864C25.6817 24.5727 21.9461 28.8151 16.8704 29.9102C11.7946 31.0052 6.58967 28.6919 4.08147 24.226C3.35837 22.9286 2.90672 21.5026 2.75303 20.0315C2.68883 19.596 2.66056 19.1562 2.66849 18.7162C2.66056 13.2631 6.54382 8.54878 11.9796 7.41226C12.6339 7.31038 13.2752 7.65673 13.5376 8.25354C13.6055 8.39175 13.6503 8.53978 13.6704 8.69195Z" fill="white"/>
<path id="Vector_2" opacity="0.4" d="M29.3335 13.9291L29.3242 13.9726L29.2973 14.0358L29.301 14.2093C29.2871 14.439 29.1983 14.6601 29.0455 14.8388C28.8862 15.0248 28.6686 15.1514 28.429 15.2006L28.2829 15.2206L18.0418 15.8842C17.7011 15.9178 17.3619 15.808 17.1087 15.5821C16.8975 15.3937 16.7626 15.1396 16.7245 14.8657L16.0371 4.6395C16.0251 4.60493 16.0251 4.56745 16.0371 4.53286C16.0465 4.25098 16.1706 3.98454 16.3817 3.79306C16.5926 3.60158 16.8731 3.50102 17.1602 3.51385C23.2401 3.66853 28.3499 8.04048 29.3335 13.9291Z" fill="white"/>
</g>
</g>
</svg>
