<svg width="32" height="27" viewBox="0 0 32 27" fill="none" xmlns="http://www.w3.org/2000/svg">
<g id="mdi:shopping-outline">
<path id="Vector" d="M24.7672 7.15384H22.1852C22.1852 4.13846 19.345 1.76923 15.7302 1.76923C12.1153 1.76923 9.27514 4.13846 9.27514 7.15384H6.69313C5.27302 7.15384 4.11111 8.12307 4.11111 9.30769V22.2308C4.11111 23.4154 5.27302 24.3846 6.69313 24.3846H24.7672C26.1873 24.3846 27.3492 23.4154 27.3492 22.2308V9.30769C27.3492 8.12307 26.1873 7.15384 24.7672 7.15384ZM15.7302 3.92307C17.9249 3.92307 19.6032 5.32307 19.6032 7.15384H11.8571C11.8571 5.32307 13.5355 3.92307 15.7302 3.92307ZM24.7672 22.2308H6.69313V9.30769H24.7672V22.2308ZM15.7302 13.6154C13.5355 13.6154 11.8571 12.2154 11.8571 10.3846H9.27514C9.27514 13.4 12.1153 15.7692 15.7302 15.7692C19.345 15.7692 22.1852 13.4 22.1852 10.3846H19.6032C19.6032 12.2154 17.9249 13.6154 15.7302 13.6154Z" fill="white"/>
</g>
</svg>
