<?xml version="1.0" standalone="no"?>
<!DOCTYPE svg PUBLIC "-//W3C//DTD SVG 20010904//EN"
 "http://www.w3.org/TR/2001/REC-SVG-20010904/DTD/svg10.dtd">
<svg version="1.0" xmlns="http://www.w3.org/2000/svg"
 width="32" height="27" viewBox="0 0 184.000000 127.000000"
 preserveAspectRatio="xMidYMid meet">

<g transform="translate(0.000000,127.000000) scale(0.100000,-0.100000)"
fill="#000000" stroke="none">
<path d="M206 1238 c-3 -13 -6 -38 -6 -55 0 -18 -4 -33 -10 -33 -14 0 -13
-109 1 -151 7 -19 18 -41 25 -50 8 -8 14 -31 14 -50 0 -24 9 -45 30 -69 16
-19 29 -40 30 -46 0 -18 54 -62 85 -70 17 -4 44 -18 61 -30 16 -13 55 -29 85
-35 31 -7 60 -20 67 -30 10 -15 26 -19 66 -19 52 0 53 -1 71 -40 22 -48 70
-93 119 -111 l35 -13 -17 -28 c-17 -29 -16 -30 20 -96 20 -37 42 -67 49 -67 7
0 30 29 52 64 38 63 39 66 24 96 -15 32 -15 32 18 43 41 16 103 76 121 119 14
32 16 33 69 33 41 0 57 4 67 19 7 10 36 23 67 30 30 6 69 22 86 35 16 13 44
26 61 30 17 4 40 17 51 29 18 20 30 37 75 106 10 14 18 37 18 51 0 14 11 47
25 74 19 37 25 65 25 113 0 35 -4 63 -10 63 -5 0 -10 15 -11 33 -1 17 -4 43
-9 57 l-7 25 -12 -30 c-44 -112 -56 -138 -88 -174 -19 -23 -39 -39 -44 -35 -5
3 -43 -8 -84 -25 -40 -17 -91 -31 -112 -31 -76 -1 -163 -57 -163 -107 0 -52
-14 -60 -52 -28 -99 84 -226 87 -319 7 -42 -36 -58 -33 -59 10 0 57 -85 118
-163 118 -21 0 -72 14 -112 31 -41 17 -79 28 -84 25 -21 -14 -94 94 -121 179
-16 52 -26 62 -34 33z m82 -168 c14 -19 56 -65 92 -102 36 -37 76 -81 89 -98
15 -20 38 -35 68 -43 40 -10 47 -17 65 -60 15 -34 31 -53 56 -66 27 -14 36
-25 38 -49 4 -32 3 -32 -40 -32 -38 0 -45 3 -48 21 -2 17 -11 23 -38 25 -80 8
-100 15 -100 34 0 15 -12 21 -60 31 -35 7 -66 20 -77 31 -18 20 -17 20 17 14
19 -4 43 -10 53 -12 11 -4 17 0 17 9 0 10 -15 18 -42 22 -60 10 -95 30 -113
65 -23 44 -18 51 19 29 57 -33 51 -4 -7 40 -45 33 -56 47 -66 85 -14 57 -14
59 3 53 12 -5 14 6 10 66 l-5 72 21 -50 c12 -27 33 -66 48 -85z m1358 59 c-4
-46 -3 -68 4 -64 14 9 13 -48 -2 -80 -6 -14 -33 -41 -60 -60 -26 -19 -48 -39
-48 -45 0 -15 9 -13 46 11 38 23 43 13 18 -30 -21 -36 -48 -52 -107 -65 -27
-6 -47 -15 -45 -21 3 -11 9 -11 65 0 37 7 37 6 20 -13 -10 -11 -43 -24 -77
-31 -48 -10 -60 -16 -60 -31 0 -19 -8 -22 -97 -35 -33 -5 -43 -11 -43 -26 0
-16 -7 -19 -45 -19 -45 0 -45 0 -45 35 0 24 5 35 14 35 26 0 75 51 87 90 10
34 16 39 51 44 27 5 50 17 70 39 17 18 67 72 113 120 58 62 91 107 111 152 16
36 31 65 33 65 2 0 1 -32 -3 -71z m-1222 -140 c19 -11 68 -25 108 -31 100 -14
168 -50 168 -90 0 -10 7 -32 15 -47 13 -26 13 -33 -3 -70 -9 -22 -21 -41 -25
-41 -5 0 -24 15 -43 34 -40 40 -46 85 -14 93 11 3 20 9 20 14 0 17 -21 19 -50
4 -38 -20 -84 -8 -121 31 l-24 25 28 -10 c16 -6 37 -11 48 -11 26 0 20 24 -7
28 -49 8 -107 38 -125 64 -24 34 -21 34 25 7z m1046 -10 c-12 -21 -62 -47
-114 -58 -16 -4 -31 -12 -34 -19 -5 -15 26 -16 65 -2 28 10 28 10 -6 -20 -44
-38 -82 -46 -115 -25 -14 9 -30 14 -36 10 -16 -10 -12 -22 11 -28 19 -5 21
-11 15 -39 -7 -36 -41 -75 -69 -80 -28 -5 -51 67 -31 96 8 11 14 32 14 47 0
46 60 81 160 93 30 4 71 16 90 26 48 26 64 26 50 -1z m-430 -130 c22 -12 51
-39 64 -58 64 -94 53 -204 -29 -280 -24 -22 -49 -41 -54 -41 -5 0 -15 -2 -23
-5 -8 -3 -21 7 -31 24 l-17 29 29 7 c34 7 89 59 97 92 4 13 4 44 1 69 -11 102
-124 155 -217 103 -107 -60 -92 -218 25 -260 33 -12 33 -13 19 -41 -18 -35
-29 -35 -86 1 -52 33 -98 113 -98 171 0 126 107 227 227 216 29 -2 71 -15 93
-27z m-120 -84 c0 -9 -11 -20 -24 -26 -13 -6 -30 -22 -37 -35 -7 -13 -21 -24
-31 -24 -22 0 -22 3 -3 40 26 50 95 82 95 45z m90 -5 c33 -24 58 -80 34 -80
-16 0 -94 75 -94 90 0 16 30 11 60 -10z m-82 -62 c-2 -17 -11 -24 -30 -26 -31
-4 -36 9 -12 32 23 24 46 20 42 -6z m67 -48 c6 -10 -29 -50 -45 -50 -11 0 -14
43 -3 53 10 10 41 8 48 -3z m65 0 c0 -39 -57 -100 -92 -100 -24 0 -23 27 2 35
10 3 29 22 40 41 20 32 50 46 50 24z m-202 -25 c7 -14 23 -30 37 -37 29 -13
34 -38 7 -38 -25 0 -60 27 -77 60 -19 37 -19 40 3 40 11 0 24 -11 30 -25z
m122 -194 l23 -51 -31 -57 c-17 -32 -34 -59 -39 -60 -5 -2 -23 23 -41 56 l-32
59 37 60 c42 68 48 68 83 -7z"/>
<path d="M519 192 c-28 -24 -21 -46 26 -73 35 -21 46 -52 23 -63 -7 -3 -4 -5
7 -3 13 1 21 11 23 29 3 22 -4 32 -37 53 -45 28 -50 41 -23 61 9 7 14 14 11
14 -4 0 -17 -8 -30 -18z"/>
<path d="M566 193 c5 -5 12 -12 16 -18 4 -6 8 -2 8 8 0 9 -7 17 -17 17 -9 0
-12 -3 -7 -7z"/>
<path d="M640 124 l0 -75 52 3 c35 2 53 8 56 18 4 12 2 13 -9 3 -7 -7 -26 -13
-41 -13 -28 0 -28 0 -28 66 l0 66 35 -4 c19 -2 35 0 35 4 0 4 -22 8 -50 8
l-50 0 0 -76z"/>
<path d="M785 125 l0 -76 49 3 c33 2 51 8 54 18 4 12 2 13 -9 3 -7 -7 -26 -13
-41 -13 -28 0 -28 0 -28 66 l0 66 35 -4 c19 -2 35 0 35 4 0 4 -21 8 -47 8
l-48 0 0 -75z"/>
<path d="M925 125 c0 -61 3 -75 15 -75 12 0 15 9 12 38 l-4 37 30 -29 c17 -16
29 -33 26 -38 -3 -4 8 -8 25 -8 l31 0 -46 42 -46 42 36 33 c30 28 32 33 16 33
-11 0 -20 -6 -20 -13 0 -14 -31 -47 -43 -47 -4 0 -7 14 -7 30 0 17 -5 30 -12
30 -9 0 -13 -22 -13 -75z"/>
<path d="M1088 125 l-3 -75 51 0 c40 0 53 4 59 17 5 15 4 16 -6 6 -7 -7 -26
-13 -41 -13 -28 0 -28 0 -28 66 l0 66 35 -4 c19 -2 35 0 35 4 0 4 -22 8 -49 8
l-49 0 -4 -75z"/>
<path d="M1230 125 c0 -60 3 -75 15 -75 10 0 15 11 15 35 0 44 9 44 38 0 12
-19 29 -35 38 -35 12 0 10 7 -10 31 -30 35 -32 45 -11 53 18 7 20 37 3 54 -7
7 -29 12 -50 12 l-38 0 0 -75z m74 49 c7 -19 -10 -44 -30 -44 -9 0 -14 11 -14
30 0 23 5 30 19 30 10 0 22 -7 25 -16z"/>
<path d="M711 136 c-9 -10 -8 -15 4 -20 10 -4 15 1 15 14 0 24 -4 25 -19 6z"/>
<path d="M854 139 c-3 -6 -1 -16 5 -22 8 -8 11 -5 11 11 0 24 -5 28 -16 11z"/>
<path d="M1161 136 c-9 -10 -8 -15 4 -20 10 -4 15 1 15 14 0 24 -4 25 -19 6z"/>
<path d="M500 72 c0 -18 6 -22 28 -21 15 0 20 3 12 6 -8 3 -21 12 -27 21 -11
14 -13 13 -13 -6z"/>
</g>
</svg>
