<svg width="32" height="27" viewBox="0 0 32 27" fill="none" xmlns="http://www.w3.org/2000/svg">
<g id="mdi:cog-outline">
<path id="Vector" d="M15.7302 9.15386C17.0997 9.15386 18.4132 9.60771 19.3817 10.4156C20.3501 11.2234 20.8942 12.3191 20.8942 13.4616C20.8942 14.604 20.3501 15.6997 19.3817 16.5076C18.4132 17.3154 17.0997 17.7692 15.7302 17.7692C14.3606 17.7692 13.0471 17.3154 12.0786 16.5076C11.1102 15.6997 10.5661 14.604 10.5661 13.4616C10.5661 12.3191 11.1102 11.2234 12.0786 10.4156C13.0471 9.60771 14.3606 9.15386 15.7302 9.15386ZM15.7302 11.3077C15.0454 11.3077 14.3886 11.5346 13.9044 11.9386C13.4202 12.3425 13.1481 12.8903 13.1481 13.4616C13.1481 14.0328 13.4202 14.5806 13.9044 14.9846C14.3886 15.3885 15.0454 15.6154 15.7302 15.6154C16.4149 15.6154 17.0717 15.3885 17.5559 14.9846C18.0401 14.5806 18.3122 14.0328 18.3122 13.4616C18.3122 12.8903 18.0401 12.3425 17.5559 11.9386C17.0717 11.5346 16.4149 11.3077 15.7302 11.3077ZM13.1481 24.2308C12.8254 24.2308 12.5543 24.0369 12.5026 23.7785L12.025 20.9246C11.2116 20.6554 10.5145 20.2892 9.84317 19.8585L6.62857 20.9462C6.34455 21.0323 5.99598 20.9462 5.84106 20.7092L3.25905 16.9831C3.18003 16.8721 3.15217 16.741 3.18069 16.6141C3.2092 16.4873 3.29213 16.3734 3.41397 16.2939L6.13799 14.5062L6.04762 13.4616L6.13799 12.3846L3.41397 10.6292C3.29213 10.5497 3.2092 10.4359 3.18069 10.309C3.15217 10.1821 3.18003 10.051 3.25905 9.94001L5.84106 6.21386C5.99598 5.97694 6.34455 5.88001 6.62857 5.97694L9.84317 7.05386C10.5145 6.63386 11.2116 6.26771 12.025 5.99848L12.5026 3.14463C12.5543 2.88617 12.8254 2.69232 13.1481 2.69232H18.3122C18.6349 2.69232 18.906 2.88617 18.9577 3.14463L19.4353 5.99848C20.2487 6.26771 20.9458 6.63386 21.6171 7.05386L24.8317 5.97694C25.1158 5.88001 25.4643 5.97694 25.6193 6.21386L28.2013 9.94001C28.3691 10.1769 28.2916 10.4677 28.0463 10.6292L25.3223 12.3846L25.4127 13.4616L25.3223 14.5385L28.0463 16.2939C28.2916 16.4554 28.3691 16.7462 28.2013 16.9831L25.6193 20.7092C25.4643 20.9462 25.1158 21.0431 24.8317 20.9462L21.6171 19.8692C20.9458 20.2892 20.2487 20.6554 19.4353 20.9246L18.9577 23.7785C18.906 24.0369 18.6349 24.2308 18.3122 24.2308H13.1481ZM14.7619 4.84617L14.2842 7.65694C12.735 7.92617 11.3666 8.6154 10.3725 9.57386L7.26116 8.45386L6.29291 9.85386L9.01693 11.5231C8.50053 12.7795 8.50053 14.1436 9.01693 15.4L6.28 17.08L7.24825 18.48L10.3854 17.36C11.3795 18.3077 12.735 18.9969 14.2713 19.2554L14.749 22.0769H16.7113L17.189 19.2662C18.7253 18.9969 20.0808 18.3077 21.0749 17.36L24.2121 18.48L25.1803 17.08L22.4434 15.4108C22.9598 14.1508 22.9598 12.7831 22.4434 11.5231L25.1674 9.85386L24.1992 8.45386L21.0878 9.57386C20.0734 8.59421 18.6973 7.92366 17.1761 7.66771L16.6984 4.84617H14.7619Z" fill="white"/>
</g>
</svg>
