<svg width="32" height="26" viewBox="0 0 32 26" fill="none" xmlns="http://www.w3.org/2000/svg">
<g id="Icon/Outline/shopping-cart">
<path id="Icon" d="M4.11111 3.30768H6.69313L7.20953 5.46152M9.27514 14.0769H22.1852L27.3492 5.46152H7.20953M9.27514 14.0769L7.20953 5.46152M9.27514 14.0769L6.315 16.5462C5.50171 17.2246 6.07771 18.3846 7.22788 18.3846H22.1852M22.1852 18.3846C20.7592 18.3846 19.6032 19.3489 19.6032 20.5384C19.6032 21.728 20.7592 22.6923 22.1852 22.6923C23.6112 22.6923 24.7672 21.728 24.7672 20.5384C24.7672 19.3489 23.6112 18.3846 22.1852 18.3846ZM11.8571 20.5384C11.8571 21.728 10.7011 22.6923 9.27514 22.6923C7.84913 22.6923 6.69313 21.728 6.69313 20.5384C6.69313 19.3489 7.84913 18.3846 9.27514 18.3846C10.7011 18.3846 11.8571 19.3489 11.8571 20.5384Z" stroke="#FDFDFF" stroke-width="2" stroke-linecap="round" stroke-linejoin="round"/>
</g>
</svg>
