<svg width="32" height="26" viewBox="0 0 32 26" fill="none" xmlns="http://www.w3.org/2000/svg">
<g id="Sign Out Icon">
<g id="Group 923">
<path id="Union" fill-rule="evenodd" clip-rule="evenodd" d="M21.3216 18.0856L25.7391 13.7859C25.9501 13.5852 26.058 13.3318 26.0582 13.077C26.0583 12.9027 26.0079 12.7278 25.9056 12.5687C25.8601 12.4978 25.8046 12.4304 25.7391 12.3681L21.3216 8.06845C20.8576 7.61685 20.0426 7.56451 19.5012 7.95156C18.9598 8.3386 18.8971 9.01846 19.3611 9.47007L21.9604 12L11.962 12C11.249 12 10.671 12.4822 10.671 13.0769C10.671 13.6717 11.249 14.1539 11.962 14.1539L21.9606 14.1539L19.3611 16.684C18.8971 17.1356 18.9598 17.8154 19.5012 18.2025C20.0426 18.5895 20.8576 18.5372 21.3216 18.0856ZM13.1481 6.61539C13.8611 6.61539 14.4391 7.09755 14.4391 7.69232L14.4391 9.3077C14.4391 9.90247 15.0171 10.3846 15.7301 10.3846C16.4431 10.3846 17.0211 9.90247 17.0211 9.3077L17.0211 7.69232C17.0211 5.90801 15.2871 4.46155 13.1481 4.46155L9.2751 4.46155C7.13609 4.46155 5.40208 5.90801 5.40208 7.69232L5.40208 18.4615C5.40208 20.2459 7.13609 21.6923 9.2751 21.6923L13.1481 21.6923C15.2871 21.6923 17.0211 20.2459 17.0211 18.4615L17.0211 16.8462C17.0211 16.2514 16.4431 15.7692 15.7301 15.7692C15.0171 15.7692 14.4391 16.2514 14.4391 16.8462L14.4391 18.4615C14.4391 19.0563 13.8611 19.5385 13.1481 19.5385L9.2751 19.5385C8.56209 19.5385 7.98409 19.0563 7.98409 18.4615L7.98409 7.69232C7.98409 7.09755 8.5621 6.61539 9.2751 6.61539L13.1481 6.61539Z" fill="#FDFDFD"/>
</g>
</g>
</svg>
